<svg xmlns="http://www.w3.org/2000/svg" width="126" height="29" viewBox="0 0 126 29" fill="none">
<path d="M4.67429 14.7779V22.5092C4.67429 23.721 5.33714 24.3606 6.60571 24.3606C7.25714 24.3606 8.09143 24.2372 8.97143 24.0016L9.49714 27.4464C8.4 27.8728 6.46857 28.1533 5.30286 28.1533C1.73714 28.1533 0 26.515 0 23.1375V14.7667H4.67429V14.7779Z" fill="white"/>
<path d="M22.7772 8.24744C21.04 8.7636 17.9429 10.5926 17.9429 10.5926L17.2572 8.60651H13.3372V28.2319H18.0114V15.2942L18.08 15.2493C19.7829 14.1833 21.3143 13.3081 23.2457 12.4441L22.7772 8.24744Z" fill="white"/>
<path d="M26.3313 1.80658V7.01309H31.0056V1.15576L26.3313 1.80658Z" fill="white"/>
<path d="M31.0056 8.60632H26.3313V28.2205H31.0056V8.60632Z" fill="white"/>
<path d="M51.0285 14.7331C51.0285 10.3457 49.1199 8.20251 45.1884 8.20251C42.9827 8.20251 40.7427 8.79722 39.3827 9.34704L39.1884 9.42559V0L34.5142 0.639594V27.5137C36.9142 27.9626 40.0227 28.1646 42.057 28.1646C49.5199 28.1646 51.0285 25.2135 51.0285 20.4446V14.7331ZM46.3427 20.6017C46.3427 22.8795 45.6685 24.2933 42.297 24.2933C41.097 24.2933 40.1142 24.2372 39.3142 24.1362L39.1884 24.125V13.2407L39.2684 13.207C40.457 12.6572 42.2513 12.0737 43.6799 12.0737C45.497 12.0737 46.3427 12.8816 46.3427 14.6097V20.6017Z" fill="white"/>
<path d="M85.2914 14.3292L85.28 28.2207H89.9542L89.9657 13.813C90.0457 10.3906 88.7428 8.39329 85.6343 8.20253C83.4057 8.06788 80.3086 8.99922 77.7714 10.2223L77.6228 10.2896L77.36 8.59527H73.5886L73.5771 28.2095H78.2514L78.2628 14.318L78.3428 14.2843C80.24 13.3081 82.3885 12.6348 83.5771 12.6348C84.7428 12.6348 85.2914 13.1734 85.2914 14.3292Z" fill="white"/>
<path d="M102.023 24.2485C99.1542 24.2485 98.1828 23.3957 98.1828 20.8822V15.4961C98.1828 12.9714 99.1542 12.1186 102.023 12.1186C102.869 12.1186 104.606 12.2533 106.011 12.6011L106.583 8.87577C105.097 8.40449 103.177 8.20251 101.897 8.20251C95.8514 8.20251 93.4971 10.2559 93.4971 15.5298V20.8373C93.4971 26.1111 95.8514 28.1646 101.897 28.1646C103.486 28.1646 105.303 27.9065 106.583 27.4913L106.011 23.766C104.709 24.0801 103.326 24.2485 102.023 24.2485Z" fill="white"/>
<path d="M117.52 28.1646C123.143 28.1646 126 25.6286 126 20.6353V15.7205C126 10.7272 123.143 8.19128 117.52 8.19128C111.897 8.19128 109.04 10.7272 109.04 15.7205V20.6353C109.04 25.6286 111.886 28.1646 117.52 28.1646ZM113.714 15.5634C113.714 13.1846 114.926 12.0737 117.52 12.0737C120.114 12.0737 121.326 13.1846 121.326 15.5634V20.7924C121.326 23.1712 120.114 24.2821 117.52 24.2821C114.926 24.2821 113.714 23.1712 113.714 20.7924V15.5634Z" fill="white"/>
<path d="M0 13.1958H10.2629L9.61143 8.60642H4.67428V3.10815L0 3.74775V13.1958Z" fill="url(#paint0_linear)"/>
<path d="M61.7714 8.20251C59.6114 8.20251 56.9599 8.55036 55.1428 9.07775L55.7142 12.5226C57.5542 12.1523 59.4628 11.9503 61.0856 11.9503C64.1599 11.9503 65.0057 12.444 65.0057 14.8453V15.8215C62.7771 15.8552 59.5885 16.2255 57.1656 17.37C55.2342 18.2789 54.1599 19.7489 54.1599 22.5204C54.1599 24.63 54.8113 28.1646 59.1771 28.1646C61.2456 28.1646 63.6342 27.5586 65.3142 26.4702L65.4742 26.3692L65.6685 28.2207H69.6799V15.0922C69.6799 10.0091 67.6114 8.20251 61.7714 8.20251ZM65.0057 23.5079C65.0057 23.5079 63.0514 24.5514 60.7999 24.5626C59.2685 24.5739 58.6628 23.9792 58.6628 22.4643C58.6628 21.3871 58.9485 20.6129 59.6114 20.265C60.9485 19.5469 62.4799 18.9746 63.2799 18.9746C64.4571 18.9746 65.0057 20.2314 65.0057 21.3871V23.5079Z" fill="white"/>
<defs>
<linearGradient id="paint0_linear" x1="0.161406" y1="13.3542" x2="7.49706" y2="5.88277" gradientUnits="userSpaceOnUse">
<stop stop-color="#8CD133"/>
<stop offset="1" stop-color="#05BDFB"/>
</linearGradient>
</defs>
</svg>